<svg id="_x33_0" enable-background="new 0 0 62.618 62.414" height="512" viewBox="0 0 62.618 62.414" width="512" xmlns="http://www.w3.org/2000/svg"><g><g><g><path d="m54.618 15.414c0-1.1-.9-2-2-2s-2 .9-2 2 .9 2 2 2 2-.9 2-2zm3 4v25.07c-.4-.23-.82-.43-1.26-.59-1.03-4.25-4.47-7.49-8.74-8.29v-16.19-8-4.17c0-.53.21-1.04.59-1.42l4.41-4.41 4.41 4.41c.38.38.59.89.59 1.42v4.17z" fill="#b27946"/></g><g><path d="m40.618 15.414c0-1.1-.9-2-2-2s-2 .9-2 2 .9 2 2 2 2-.9 2-2zm3-4v8 16h-8-2v-16-8-4.17c0-.53.21-1.04.59-1.42l4.41-4.41 4.41 4.41c.38.38.59.89.59 1.42z" fill="#b27946"/></g><g><path d="m26.618 15.414c0-1.1-.9-2-2-2s-2 .9-2 2 .9 2 2 2 2-.9 2-2zm3-4v8 16h-4c-.9 0-1.66.6-1.91 1.42l-4.09-5.61v-11.81-8-4.17c0-.53.21-1.04.59-1.42l4.41-4.41 4.41 4.41c.38.38.59.89.59 1.42z" fill="#b27946"/></g><g><path d="m7.378 25.094 8.24 10.99v9.33h-3.71l-1.29-3-1.29 3h-3.71v-22.67z" fill="#b27946"/></g><g><path d="m12.398 21.334-4.25-5.82-.63-.87c-.46-.63-1.15-1.05-1.9-1.18v-6.22c0-.53.21-1.04.59-1.42l4.41-4.41 4.41 4.41c.38.38.59.89.59 1.42v4.17 8 6.33zm.22-5.92c0-1.1-.9-2-2-2s-2 .9-2 2 .9 2 2 2 2-.9 2-2z" fill="#b27946"/></g><g><path d="m61.618 12.414v6c0 .55-.45 1-1 1h-3v-8h3c.55 0 1 .45 1 1z" fill="#d3a06c"/></g><g><path d="m43.618 11.414h4v8h-4z" fill="#d3a06c"/></g><g><path d="m29.618 11.414h4v8h-4z" fill="#d3a06c"/></g><g><path d="m15.618 11.414h4v8h-4z" fill="#d3a06c"/></g><g><path d="m61.618 51.414v4c0-3.31-2.69-6-6-6s-6 2.69-6 6h-1-4-4-1c0-2.49-1.53-4.64-3.69-5.54l3.69-6.46h14c.96 0 1.89.17 2.74.48.44.16.86.36 1.26.59.46.27.9.58 1.29.93 1.66 1.46 2.71 3.61 2.71 6z" fill="#fcd770"/></g><g><path d="m23.618 46.744 4.58 6.11c-.38.77-.58 1.64-.58 2.56h-3c-.55 0-1-.45-1-1z" fill="#fcd770"/></g><g><path d="m35.618 35.414 4 8-3.69 6.46c-.71-.3-1.49-.46-2.31-.46-.24 0-.47.01-.7.04l-9.21-12.62c.25-.82 1.01-1.42 1.91-1.42h4 4z" fill="#fcd770"/></g><g><path d="m56.358 43.894c-.85-.31-1.78-.48-2.74-.48h-14l-4-8h8 1.95c.7 0 1.39.07 2.05.19 4.27.8 7.71 4.04 8.74 8.29z" fill="#ffeaa7"/></g><g><path d="m49.618 55.414c0 3.31 2.69 6 6 6h-22c3.31 0 6-2.69 6-6h1 4 4z" fill="#ccd1d9"/></g><g><path d="m23.708 36.834 9.21 12.62c-2.09.24-3.86 1.57-4.72 3.4l-4.58-6.11-1-1.33-7-9.33-8.24-10.99 5.02-3.76 3.22 4.41 4 5.48z" fill="#ccd1d9"/></g><g><path d="m5.618 13.464c.75.13 1.44.55 1.9 1.18l.63.87-5.09 3.82-.84-1.12c-.39-.52-.6-1.15-.6-1.8 0-.83.34-1.58.88-2.12s1.29-.88 2.12-.88h.48c.18 0 .35.02.52.05z" fill="#ccd1d9"/></g><g><path d="m8.148 15.514 4.25 5.82-5.02 3.76-1.76-2.35-2.56-3.41z" fill="#969faa"/></g><g><path d="m11.908 45.414 1.71 4 5-2-3 8h4l-3 6h-12l-3-6h4l-3-8 5 2 1.71-4 1.29-3z" fill="#b4dd7f"/></g><g><path d="m55.618 49.414c3.31 0 6 2.69 6 6s-2.69 6-6 6-6-2.69-6-6 2.69-6 6-6z" fill="#969faa"/></g><g><path d="m35.928 49.874c2.16.9 3.69 3.05 3.69 5.54 0 3.31-2.69 6-6 6s-6-2.69-6-6c0-.92.2-1.79.58-2.56.86-1.83 2.63-3.16 4.72-3.4.23-.03.46-.04.7-.04.82 0 1.6.16 2.31.46z" fill="#969faa"/></g><g><circle cx="55.618" cy="55.414" fill="#ccd1d9" r="2"/></g><g><circle cx="33.618" cy="55.414" fill="#ccd1d9" r="2"/></g></g><g><path d="m33.618 52.414c-1.654 0-3 1.346-3 3s1.346 3 3 3 3-1.346 3-3-1.346-3-3-3zm0 4c-.552 0-1-.449-1-1s.448-1 1-1 1 .449 1 1-.448 1-1 1z"/><path d="m55.618 52.414c-1.654 0-3 1.346-3 3s1.346 3 3 3 3-1.346 3-3-1.346-3-3-3zm0 4c-.552 0-1-.449-1-1s.448-1 1-1 1 .449 1 1-.448 1-1 1z"/><path d="m7.67 59.098 1.896.632 1.052-3.154 1.052 3.154 1.896-.632-2.948-8.846z"/><path d="m52.618 18.414c1.654 0 3-1.346 3-3s-1.346-3-3-3-3 1.346-3 3 1.346 3 3 3zm0-4c.552 0 1 .449 1 1s-.448 1-1 1-1-.449-1-1 .448-1 1-1z"/><path d="m58.618 20.414h2c1.103 0 2-.897 2-2v-6c0-1.103-.897-2-2-2h-2v-3.171c0-.801-.313-1.555-.879-2.122l-5.121-5.121-5.121 5.121c-.566.566-.879 1.32-.879 2.122v3.171h-2v-3.171c0-.801-.313-1.555-.879-2.122l-5.121-5.121-5.121 5.121c-.566.566-.879 1.32-.879 2.122v3.171h-2v-3.171c0-.801-.313-1.555-.879-2.122l-5.121-5.121-5.121 5.121c-.566.566-.879 1.32-.879 2.122v3.171h-2v-3.171c0-.801-.313-1.555-.879-2.122l-5.121-5.121-5.121 5.121c-.566.567-.879 1.32-.879 2.122v5.171c-2.206 0-4 1.794-4 4 0 .859.284 1.711.8 2.4l3.2 4.267v21.333h-4v2h.557l3 8h-4.175l4 8h13.236l4-8h-4.175l3-8h2.057l.5.666v7.334c0 1.103.897 2 2 2h2.08c.488 3.387 3.401 6 6.92 6h22c3.859 0 7-3.14 7-7v-4c0-1.849-.562-3.569-1.522-5h1.522v-2h-3.356c-.208-.168-.422-.329-.644-.478zm-11 28v6h-2v-6h-2v6h-2v-6h-2v3.413c-.574-.956-1.367-1.762-2.312-2.352l2.892-5.061h13.42c3.53 0 6.451 2.63 6.925 6.032-1.266-1.255-3.006-2.032-4.925-2.032-2.548 0-4.775 1.373-6 3.413v-3.413zm-19.493 2.676-19.347-25.796 3.407-2.555 19.048 26.103c-1.235.449-2.308 1.234-3.108 2.248zm-18.507-35.676c0-.551.448-1 1-1s1 .449 1 1-.448 1-1 1-1-.449-1-1zm-.734 2.801-3.466 2.599-.96-1.28 3.482-2.611zm-2.266 4.199 3.445-2.583.943 1.293-3.428 2.571zm12 5.749-2-2.741v-5.008h2zm15 20.251c-.072 0-.142.009-.214.011l-8.52-11.675c.185-.204.442-.336.734-.336h9.382l3.484 6.969-3.021 5.286c-.588-.161-1.205-.255-1.845-.255zm-1-14h-2v-14h2zm14 .045c-.346-.03-.697-.045-1.05-.045h-.95v-14h2zm-1.05 1.955c4.101 0 7.708 2.436 9.279 6.094-.403-.055-.811-.094-1.229-.094h-13.382l-3-6zm15.05-24v6h-2v-6zm-11.707-5.879 3.707-3.707 3.707 3.707c.188.189.293.44.293.708v34.334c-1.501-3.375-4.452-5.861-8-6.777v-27.557c0-.267.105-.519.293-.708zm-2.293 5.879v6h-2v-6zm-11.707-5.879 3.707-3.707 3.707 3.707c.188.189.293.44.293.708v27.171h-8v-27.171c0-.267.105-.519.293-.708zm-2.293 5.879v6h-2v-6zm-11.707-5.879 3.707-3.707 3.707 3.707c.188.189.293.44.293.708v27.171h-3c-.728 0-1.398.263-1.924.704l-3.076-4.215v-23.66c0-.267.105-.519.293-.708zm-2.293 5.879v6h-2v-6zm-11.707-5.879 3.707-3.707 3.707 3.707c.188.189.293.44.293.708v15.438l-3.202-4.388c1.266-.352 2.202-1.502 2.202-2.879 0-1.654-1.346-3-3-3-1.055 0-1.98.55-2.515 1.375-.409-.468-.919-.83-1.485-1.065v-5.481c0-.267.105-.519.293-.708zm-2.293 7.879h.476c.637 0 1.24.307 1.615.821l.053.072-3.503 2.627-.24-.32c-.259-.344-.4-.771-.4-1.2-.001-1.103.897-2 1.999-2zm2 11.333 8 10.667v8h-2.055l-1.945-4.539-1.945 4.539h-2.055zm-3.807 20.667h5.005l-.733 1.709zm15.189 10-2 4h-10.764l-2-4h3.825l-2.712-7.23 3.804 1.521 2.465-5.752 2.465 5.752 3.804-1.521-2.712 7.23zm-3.847-8.291-.733-1.709h5.005zm2.465-3.709v-5.333l4 5.333zm8 5.333 2.439 3.251c-.167.452-.288.925-.359 1.416h-2.08zm4 5.667c0-2.757 2.243-5 5-5s5 2.243 5 5-2.243 5-5 5-5-2.243-5-5zm9.89 5c1.074-1.051 1.806-2.443 2.031-4h8.16c.224 1.557.956 2.949 2.031 4zm17.11 0c-2.757 0-5-2.243-5-5s2.243-5 5-5 5 2.243 5 5-2.243 5-5 5z"/><path d="m38.618 18.414c1.654 0 3-1.346 3-3s-1.346-3-3-3-3 1.346-3 3 1.346 3 3 3zm0-4c.552 0 1 .449 1 1s-.448 1-1 1-1-.449-1-1 .448-1 1-1z"/><path d="m24.618 18.414c1.654 0 3-1.346 3-3s-1.346-3-3-3-3 1.346-3 3 1.346 3 3 3zm0-4c.552 0 1 .449 1 1s-.448 1-1 1-1-.449-1-1 .448-1 1-1z"/></g></g></svg>