<svg id="Capa_1" enable-background="new 0 0 512.011 512.011" height="512" viewBox="0 0 512.011 512.011" width="512" xmlns="http://www.w3.org/2000/svg"><g><path d="m443.09 288.884c5.916-20.349 8.916-41.441 8.916-62.884 0-124.379-101.632-226-226-226-124.379 0-226 101.632-226 226 0 124.065 101.383 225 226 225 30.993 0 61.618-6.253 89.533-18.142 16.6 35.936 47.439 64.478 86.724 77.572l4.743 1.581 4.743-1.581c59.967-19.988 100.257-75.968 100.257-139.299v-70.131h-15c-20.52 0-39.493-5.856-53.916-12.116zm-141.084 12.116v70.131c0 11.385 1.309 22.531 3.793 33.274-24.741 10.881-52.08 16.595-79.793 16.595-108.075 0-196-87.477-196-195 0-108.075 87.925-196 196-196s196 87.925 196 196c0 16.327-2.009 32.411-5.964 48.025-.028-.021-9.021-6.674-9.021-6.674l-8.945 6.598c-.368.27-37.187 27.051-81.07 27.051zm180 70.131c0 48.709-29.933 91.948-75 109.144-45.067-17.196-75-60.435-75-109.144v-40.926c33.621-3.526 61.4-17.946 75-26.25 13.6 8.304 41.379 22.724 75 26.25z"/><path d="m400.682 341.304c-18.87 8.772-31.781 11.874-38.677 14.189v15.643c0 28.085 13.568 54.522 36.295 70.717l8.705 6.203 8.705-6.203c22.727-16.195 36.295-42.631 36.295-70.717v-15.643c-6.663-2.237-19.517-5.283-38.677-14.189l-6.323-2.94zm21.002 35.892c-1.299 12.207-6.487 23.628-14.679 32.538-8.191-8.91-13.38-20.332-14.679-32.538 4.903-1.781 9.806-3.733 14.679-5.847 4.874 2.114 9.776 4.066 14.679 5.847z"/><path d="m211.006 60h30v30h-30z"/><path d="m211.006 361h30v30h-30z"/><path d="m60.006 211h30v30h-30z"/><path d="m362.006 211h30v30h-30z"/><path d="m241.006 120h-30v99.787l-55.607 55.606 21.213 21.214 55.607-55.607h69.787v-30h-61z"/></g></svg>